<svg version="1.1" id="Layer_1" xmlns="http://www.w3.org/2000/svg" xmlns:xlink="http://www.w3.org/1999/xlink" x="0px" y="0px" width="30px" height="30px" viewBox="0 0 626 626" enable-background="new 0 0 626 626" xml:space="preserve">
	<g>
		<path fill="#3256ca" fill-rule="evenodd" clip-rule="evenodd" d="M0,500c1.15-4.985,2.292-9.973,3.453-14.956 c5.097-21.892,16.517-40.106,32.29-55.851c36.051-35.985,72.015-72.06,108.074-108.036c32.642-32.567,65.108-65.315,98.157-97.464 c16.426-15.979,36.727-25.129,59.492-28.149c37.153-4.93,69.48,5.425,96.505,31.56c7.169,6.932,6.136,17.908-1.836,23.318	c-5.387,3.656-13.03,3.271-17.979-1.383c-11.62-10.929-24.731-19.344-40.435-22.653c-30.776-6.487-57.734,1.062-80.15,23.424 c-52.442,52.315-104.84,104.677-157.21,157.064c-16.122,16.128-32.562,31.973-48.021,48.718 c-20.172,21.852-26.918,47.779-19.619,76.799c7.394,29.397,25.937,49.468,54.344,59.033c30.851,10.389,59.644,4.612,83.407-17.927 c28.016-26.571,54.921-54.313,82.299-81.557c7.552-7.516,15.046-15.09,22.616-22.587c5.71-5.654,15.541-6.181,20.914-1.209c6.178,5.716,6.781,15.237,0.693,21.527c-12.966,13.396-26.225,26.511-39.417,39.687c-21.557,21.528-43.06,43.111-64.768,64.487	c-17.398,17.132-38.453,27.1-62.53,30.833c-1.785,0.276-3.521,0.873-5.28,1.321c-7.667,0-15.333,0-23,0	c-8.34-2.062-16.967-3.348-24.97-6.316c-38.116-14.139-63.089-40.587-73.417-80.266C2.283,534.311,1.198,529.141,0,524 C0,516,0,508,0,500z"/>
		<path fill="#3256ca" fill-rule="evenodd" clip-rule="evenodd" d="M626,126c-1.117,4.819-2.237,9.639-3.352,14.458 c-5.143,22.244-16.729,40.699-32.798,56.681c-33.88,33.695-67.583,67.569-101.406,101.322 c-34.767,34.694-69.258,69.674-104.521,103.854c-18.948,18.365-42.514,27.442-68.956,28.954 c-33.629,1.923-62.476-8.933-86.705-32.172c-7.37-7.069-6.382-18.314,1.813-23.676c5.474-3.582,12.859-3.1,17.98,1.65 c12.078,11.201,25.675,19.707,41.989,22.842c29.913,5.747,56.239-1.691,77.929-23.269 c54.653-54.366,109.114-108.928,163.61-163.453c14.24-14.246,28.798-28.216,42.369-43.079 c19.787-21.672,26.495-47.317,19.497-75.959c-7.392-30.253-26.488-50.568-55.823-60.013c-30.238-9.734-58.496-3.907-81.671,17.924 c-28.344,26.699-55.401,54.765-83.007,82.247c-7.553,7.519-15.012,15.132-22.634,22.577c-5.556,5.427-15.207,5.751-20.552,0.914 c-6.059-5.483-6.933-14.971-1.081-21.108c12.06-12.649,24.533-24.906,36.888-37.272c20.825-20.846,41.885-41.46,62.482-62.528 c19.056-19.491,41.634-31.773,68.661-35.75C498.167,0.931,499.572,0.389,501,0c7.333,0,14.667,0,22,0 c8.883,2.14,18.091,3.405,26.594,6.568c37.889,14.093,62.527,40.591,72.803,79.971c1.336,5.118,2.409,10.306,3.604,15.461	C626,110,626,118,626,126z"/>
	</g>
</svg>
