<?xml version="1.0" encoding="utf-8"?>
<!-- Generator: Adobe Illustrator 16.0.0, SVG Export Plug-In . SVG Version: 6.00 Build 0)  -->
<!DOCTYPE svg PUBLIC "-//W3C//DTD SVG 1.1//EN" "http://www.w3.org/Graphics/SVG/1.1/DTD/svg11.dtd">
<svg version="1.1" id="Layer_1" xmlns="http://www.w3.org/2000/svg" xmlns:xlink="http://www.w3.org/1999/xlink" x="0px" y="0px"
	 width="127.984px" height="127.984px" viewBox="0 0 127.984 127.984" enable-background="new 0 0 127.984 127.984"
	 xml:space="preserve">
<g>
	<path fill-rule="evenodd" clip-rule="evenodd" d="M66.992,1C77.611,15.482,88.258,29.944,98.84,44.454
		c6.009,8.24,11.624,16.737,13.204,27.106c3.03,19.886-3.22,36.395-19.549,48.129c-15.862,11.4-33.204,12.638-50.296,2.863
		c-17.387-9.944-25.781-25.539-24.992-45.632c0.396-10.083,4.364-19.195,10.233-27.223C39.419,33.314,51.785,17.216,63.992,1
		C64.992,1,65.992,1,66.992,1z M65.409,7.549c-1.53,1.804-2.538,2.877-3.417,4.047C53.2,23.304,44.245,34.897,35.736,46.809
		c-3.938,5.513-7.841,11.325-10.29,17.577c-6.515,16.635-3.783,32.313,8.308,45.454c11.681,12.696,26.575,16.801,43.245,12.005
		c27.729-7.979,39.584-40.225,23.435-65.468C89.787,39.734,77.432,24.186,65.409,7.549z"/>
</g>
</svg>
