<?xml version="1.0" encoding="utf-8"?>
<!-- Generator: Adobe Illustrator 16.0.0, SVG Export Plug-In . SVG Version: 6.00 Build 0)  -->
<!DOCTYPE svg PUBLIC "-//W3C//DTD SVG 1.1//EN" "http://www.w3.org/Graphics/SVG/1.1/DTD/svg11.dtd">
<svg version="1.1" id="Layer_1" xmlns="http://www.w3.org/2000/svg" xmlns:xlink="http://www.w3.org/1999/xlink" x="0px" y="0px"
	 width="312.659px" height="236.301px" viewBox="152.396 277.849 312.659 236.301"
	 enable-background="new 152.396 277.849 312.659 236.301" xml:space="preserve">
<g>
	<g>
		<path fill="#231F20" d="M240.125,469.099H239.7c-1.699-0.424-2.975-2.125-2.55-3.822c1.274-6.375,1.274-12.75,0.425-19.125
			s-2.55-12.326-5.525-18.275c-0.85-1.701,0-3.4,1.275-4.25c1.7-0.85,3.4,0,4.25,1.275c2.975,6.375,5.1,13.174,6.375,20.398
			c0.85,7.227,0.85,14.449-0.85,21.25C243.1,468.25,241.825,469.099,240.125,469.099z"/>
	</g>
</g>
<g>
	<g>
		<path fill="#231F20" d="M259.25,480.15h-0.426c-1.699-0.426-2.975-2.125-2.55-3.824c2.125-11.051,2.55-22.102,0.851-33.15
			c-1.701-10.625-4.676-20.826-9.351-30.6c-0.851-1.701,0-3.4,1.274-4.25c1.701-0.852,3.4,0,4.25,1.273
			c5.101,10.199,8.5,21.25,10.201,32.301c1.699,11.898,1.274,23.801-0.851,35.273C262.225,478.875,260.95,480.15,259.25,480.15z"/>
	</g>
</g>
<g>
	<g>
		<path fill="#231F20" d="M278.799,490.775h-0.424c-1.701-0.426-2.976-2.125-2.551-3.824c2.975-14.875,2.975-30.176,1.275-45.477
			c-2.125-15.301-6.375-30.6-13.176-44.625c-0.85-1.7,0-3.398,1.701-4.25c1.699-0.852,3.399,0,4.25,1.699
			c7.225,14.875,11.899,30.176,13.6,46.326c2.125,15.725,1.699,31.875-1.275,47.6C281.775,489.925,280.075,490.775,278.799,490.775z
			"/>
	</g>
</g>
<g>
	<g>
		<path fill="none" stroke="#231F20" stroke-width="1.5" stroke-linecap="round" stroke-miterlimit="10" d="M192.525,510.326"/>
	</g>
</g>
<g>
	<g>
		<path fill="#231F20" d="M376.975,469.099h0.426c1.699-0.424,2.975-2.125,2.551-3.822c-1.275-6.375-1.275-12.75-0.426-19.125
			s2.551-12.326,5.523-18.275c0.852-1.701,0-3.4-1.273-4.25c-1.699-0.85-3.4,0-4.25,1.275c-2.977,6.375-5.102,13.174-6.375,20.398
			c-0.852,7.227-0.852,14.449,0.85,21.25C374.424,468.25,375.7,469.099,376.975,469.099z"/>
	</g>
</g>
<g>
	<g>
		<path fill="#231F20" d="M358.276,480.15h0.424c1.701-0.426,2.975-2.125,2.551-3.824c-2.125-11.051-2.551-22.102-0.85-33.15
			c1.697-10.625,4.674-20.826,9.35-30.6c0.85-1.701,0-3.4-1.275-4.25c-1.699-0.852-3.398,0-4.25,1.273
			c-5.1,10.199-8.5,21.25-10.199,32.301c-1.699,11.898-1.275,23.801,0.85,35.273C355.299,478.875,356.575,480.15,358.276,480.15z"/>
	</g>
</g>
<g>
	<g>
		<path fill="#231F20" d="M338.725,490.775h0.426c1.699-0.426,2.975-2.125,2.551-3.824c-2.977-14.875-2.977-30.176-1.275-45.477
			c2.125-15.301,6.375-30.6,13.174-44.625c0.852-1.7,0-3.398-1.697-4.25c-1.701-0.85-3.4,0-4.25,1.699
			c-7.227,14.875-11.9,30.176-13.602,46.326c-2.125,15.725-1.701,31.875,1.275,47.6C335.75,489.925,337.026,490.775,338.725,490.775
			z"/>
	</g>
</g>
<path fill="#231F20" d="M441.151,397.275l-3.826-0.426c-2.549-16.148-21.674-119-128.775-119c-107.1,0-126.225,102.85-128.774,119
	l-3.825,0.426c-14.449,1.699-25.075,14.875-23.375,29.75l7.65,63.324c0.85,7.227,4.25,13.602,9.775,17.852
	c4.674,3.824,10.625,5.523,16.574,5.523c0.85,0,2.125,0,3.4,0l25.925-2.975l3.825-0.426c2.55-0.424,5.1-1.699,6.8-3.824
	s2.55-4.676,2.125-7.65l-11.899-96.051c0-1.273-0.426-2.125-0.851-3.398c0.851-6.8,10.2-84.15,92.649-84.15
	c82.451,0,92.227,77.351,92.65,84.15c-0.424,0.85-0.852,2.125-0.852,3.398l-11.475,96.477c-0.424,2.551,0.426,5.1,2.125,7.648
	c1.701,2.125,4.25,3.4,6.801,3.826l3.824,0.424l25.926,2.977c0.852,0,2.125,0,3.4,0c5.949,0,11.898-2.125,16.574-5.525
	c5.523-4.25,9.35-10.625,9.773-17.85l7.65-63.324C466.225,412.576,456.026,398.975,441.151,397.275z M211.65,504.8l-22.524,2.549
	c-5.525,0.852-10.625-0.85-14.875-4.25c-4.25-3.398-6.801-8.072-7.65-13.6l-7.65-63.324c-1.275-11.051,6.801-21.25,17.85-22.524
	L198.9,401.1l0,0C200.174,415.975,204.85,476.326,211.65,504.8L211.65,504.8z M221.85,499.701c0,0.85,0,2.125-0.85,2.975
	c-0.851,0.852-1.701,1.275-2.551,1.275h-0.85l0,0c-6.801-27.625-11.475-89.676-12.75-103.701h0.85h0.426
	c0.85,0,1.699,0.426,2.125,0.851c0.85,0.426,1.274,1.274,1.274,2.551L221.85,499.701z M308.549,308.875
	c-78.199,0-95.199,67.15-98.6,85.851c-1.275-0.425-2.975-0.851-4.675-0.425l-3.825,0.425l0,0c0,0-0.425,0-0.85,0L186.575,396
	c2.975-19.549,22.95-111.774,121.975-111.774c99.025,0,119,92.649,121.977,111.774l-14.449-1.699c0,0-0.426,0-0.852,0l0,0
	l-3.824-0.426c-1.699,0-2.977,0-4.676,0.426C404.174,376.025,386.75,308.875,308.549,308.875z M399.5,503.951L399.5,503.951h-0.85
	c-0.852,0-1.701-0.852-2.553-1.275c-0.424-0.85-0.85-1.701-0.85-2.975l11.475-96.477c0-0.85,0.852-2.125,1.275-2.551
	c0.85-0.424,1.275-0.85,2.125-0.85h0.426h0.852C410.975,414.701,406.299,476.75,399.5,503.951z M458.151,426.175l-7.227,63.324
	c-0.426,5.525-3.398,10.201-7.648,13.6c-4.25,3.4-9.352,4.678-14.875,4.25l-22.525-2.549l0,0
	c6.799-28.475,11.475-88.825,12.75-103.7l0,0l22.1,2.551C451.776,404.925,459.85,415.125,458.151,426.175z"/>
<g>
	<g>
		<path fill="none" stroke="#231F20" stroke-width="1.5" stroke-linecap="round" stroke-miterlimit="10" d="M425,510.326"/>
	</g>
</g>
</svg>
