<?xml version="1.0" encoding="utf-8"?>
<!-- Generator: Adobe Illustrator 16.0.0, SVG Export Plug-In . SVG Version: 6.00 Build 0)  -->
<!DOCTYPE svg PUBLIC "-//W3C//DTD SVG 1.1//EN" "http://www.w3.org/Graphics/SVG/1.1/DTD/svg11.dtd">
<svg version="1.1" id="Capa_1" xmlns="http://www.w3.org/2000/svg" xmlns:xlink="http://www.w3.org/1999/xlink" x="0px" y="0px"
	 width="348.078px" height="348.078px" viewBox="0 0 348.078 348.078" enable-background="new 0 0 348.078 348.078"
	 xml:space="preserve">
<g>
	<g>
		<g>
			<path d="M340.273,275.083l-53.755-53.762c-10.707-10.664-28.438-10.34-39.519,0.744l-27.082,27.076
				c-1.711-0.943-3.481-1.928-5.344-2.973c-17.102-9.477-40.509-22.465-65.14-47.113c-24.704-24.701-37.704-48.144-47.209-65.257
				c-1.003-1.813-1.964-3.561-2.913-5.221l18.176-18.149l8.936-8.947c11.097-11.1,11.403-28.826,0.721-39.521L73.39,8.194
				C62.708-2.486,44.969-2.162,33.872,8.938l-15.15,15.237l0.414,0.411c-5.08,6.482-9.325,13.958-12.484,22.02
				C3.74,54.28,1.927,61.603,1.098,68.941C-6,127.785,20.89,181.564,93.866,254.541c100.875,100.869,182.167,93.248,185.674,92.877
				c7.637-0.914,14.957-2.738,22.396-5.627c7.992-3.123,15.463-7.361,21.941-12.431l0.33,0.294l15.348-15.029
				C350.63,303.527,350.951,285.794,340.273,275.083z"/>
		</g>
	</g>
</g>
</svg>
